# xmcd
#
# Track frame offsets: 
#        150
#        12567
#        28469
#        42389
#        53081
#        69572
#        80410
#        93575
#        105035
#        118149
#        133854
#        152192
#        162664
#        174309
#        192924
#        207698
#        223228
#        242793
#
# Disc length: 3516 seconds
#
# Revision: 1
# Processed by: cddbd v1.5.2PL0 Copyright (c) Steve Scherf et al.
# Submitted via: ExactAudioCopy v0.95b4
#
DISCID=0f0dba12
DTITLE=Various Artist - De Mooiste Levensliedjes Vol. 4 [CD2)
DYEAR=2008
DGENRE=Chanson
TTITLE0=André Hazes - Zeg Maar Niets Meer
TTITLE1=Jo Vally - In Een Droom Zag Ik Je Staan
TTITLE2=Laura Lynn and Marva - Rode Rozen In De Sneeuw
TTITLE3=Eddy Wally - Onder Je Ballustrade
TTITLE4=Frans Bauer - Eens Komt Er Een Dag
TTITLE5=Johnny Hoes - Och Was Ik Maar
TTITLE6=Zangeres Zonder Naam - Het Mooiste Geschenk In M'n Leven
TTITLE7=Wilma - Die Zwerver Op Straat
TTITLE8=René Schuurmans - Huilen Is Voor Jou Te Vroeg
TTITLE9=Jimmy Frey - Pappie Nummer Twee
TTITLE10=Hanny and De Rekels - Waarom Trouw Je Met Die Ander
TTITLE11=Annie De Reuver - Veel Bittere Tranen
TTITLE12=Ciska Peters - Zeeman Je Verlangen Is De Zee
TTITLE13=Grad Damen - De Straat Was Zijn Woning
TTITLE14=Holland Duo - Huil Maar Niet M'n Kleine Meid
TTITLE15=Helemaal Hollands - Zondagskind
TTITLE16=Jannes - Elke Nieuwe Morgen Heeft Een Nieuwe Lach
TTITLE17=Gordon - Kon Ik Maar Even Bij Je Zijn
EXTD=
EXTT0=
EXTT1=
EXTT2=
EXTT3=
EXTT4=
EXTT5=
EXTT6=
EXTT7=
EXTT8=
EXTT9=
EXTT10=
EXTT11=
EXTT12=
EXTT13=
EXTT14=
EXTT15=
EXTT16=
EXTT17=
PLAYORDER=
